<?xml version="1.0" encoding="UTF-8" standalone="no"?>
<!-- Created with Inkscape (http://www.inkscape.org/) -->

<svg
   xmlns:dc="http://purl.org/dc/elements/1.1/"
   xmlns:cc="http://creativecommons.org/ns#"
   xmlns:rdf="http://www.w3.org/1999/02/22-rdf-syntax-ns#"
   xmlns:svg="http://www.w3.org/2000/svg"
   xmlns="http://www.w3.org/2000/svg"
   xmlns:sodipodi="http://sodipodi.sourceforge.net/DTD/sodipodi-0.dtd"
   xmlns:inkscape="http://www.inkscape.org/namespaces/inkscape"
   width="140.79636mm"
   height="140.79636mm"
   viewBox="0 0 140.79636 140.79636"
   version="1.1"
   id="svg837"
   inkscape:version="0.92.4 (5da689c313, 2019-01-14)"
   sodipodi:docname="icon.svg">
  <defs
     id="defs831" />
  <sodipodi:namedview
     id="base"
     pagecolor="#ffffff"
     bordercolor="#666666"
     borderopacity="1.0"
     inkscape:pageopacity="0.0"
     inkscape:pageshadow="2"
     inkscape:zoom="1"
     inkscape:cx="190.78617"
     inkscape:cy="301.78617"
     inkscape:document-units="mm"
     inkscape:current-layer="layer1"
     showgrid="false"
     inkscape:window-width="1440"
     inkscape:window-height="871"
     inkscape:window-x="0"
     inkscape:window-y="0"
     inkscape:window-maximized="1" />
  <metadata
     id="metadata834">
    <rdf:RDF>
      <cc:Work
         rdf:about="">
        <dc:format>image/svg+xml</dc:format>
        <dc:type
           rdf:resource="http://purl.org/dc/dcmitype/StillImage" />
        <dc:title />
      </cc:Work>
    </rdf:RDF>
  </metadata>
  <g
     inkscape:label="Ebene 1"
     inkscape:groupmode="layer"
     id="layer1"
     transform="translate(-39.97086,-56.134561)">
    <rect
       style="opacity:1;fill:#ffff00;fill-opacity:0.03921569;stroke:none;stroke-width:3.46499991;stroke-miterlimit:4;stroke-dasharray:none"
       id="rect1389"
       width="106.58929"
       height="96.761902"
       x="49.136902"
       y="87.601196" />
    <rect
       style="opacity:1;fill:#ffff00;fill-opacity:0.03921569;stroke:none;stroke-width:3.46499991;stroke-miterlimit:4;stroke-dasharray:none"
       id="rect1391"
       width="56.69643"
       height="71.815475"
       x="49.136902"
       y="87.601196" />
    <rect
       style="opacity:1;fill:#ffff00;fill-opacity:0.03921569;stroke:none;stroke-width:3.46499991;stroke-miterlimit:4;stroke-dasharray:none"
       id="rect1393"
       width="96.005951"
       height="97.517868"
       x="84.666656"
       y="80.041672" />
    <rect
       style="opacity:1;fill:#ffff00;fill-opacity:0.03921569;stroke:none;stroke-width:3.46499991;stroke-miterlimit:4;stroke-dasharray:none"
       id="rect1395"
       width="22.678572"
       height="9.0714283"
       x="111.88095"
       y="125.3988" />
    <rect
       style="opacity:1;fill:#fdff00;fill-opacity:0.99756691;stroke:#000000;stroke-width:3.46499991;stroke-miterlimit:4;stroke-dasharray:none;stroke-opacity:1"
       id="rect1397"
       width="95.661354"
       height="96.524773"
       x="119.68418"
       y="-36.832924"
       transform="rotate(45)" />
    <path
       style="stroke-width:0.05615566"
       inkscape:connector-curvature="0"
       d="m 155.28858,103.58644 c -0.69765,0.35606 -4.08728,0.84753 -7.56377,1.06687 -10.6311,0.60742 -22.11583,2.97034 -25.74683,5.46535 -1.72569,1.12936 -3.87606,2.3082 -4.74663,2.55818 -1.70512,0.54026 -13.0692,1.90139 -19.942658,2.5166 -2.195283,0.16652 -6.973592,1.02785 -10.564137,1.90659 -4.338972,1.00311 -6.886733,1.29994 -7.391587,0.73496 -1.514545,-1.69501 -8.570568,-2.59585 -14.414514,-1.87785 -1.633743,0.18297 -4.253614,0.39904 -5.793887,0.51166 -6.636537,0.26834 -8.234208,0.49148 -9.586074,1.33965 -0.819816,0.48171 -2.806061,0.79481 -4.433182,0.63535 -2.757507,-0.28772 -8.290873,1.04023 -8.807472,2.03612 -0.143503,0.27665 1.580809,2.55619 3.852642,5.09871 3.858505,4.31819 4.211761,4.62606 5.319306,4.0292 4.63184,-2.33687 26.497488,-4.27543 28.0481,-2.54008 0.649092,0.72642 0.731557,2.65513 0.186266,3.70635 -0.258306,0.49799 -0.58575,2.66754 -0.747619,4.84748 l -0.28841,3.96216 -1.288586,-0.0429 c -0.698398,-0.082 -2.274741,-0.01 -3.419085,0.10875 -1.173053,0.17384 -3.174027,0.29553 -4.426566,0.29302 -3.030519,0.0189 -8.197406,0.96994 -8.484407,1.52323 -0.143503,0.27665 1.833229,2.8387 4.393556,5.70405 l 4.687906,5.24645 13.959625,-3.17856 c 7.677828,-1.7263 14.139944,-2.97675 14.320247,-2.77498 0.180295,0.20179 1.950901,0.0845 3.973235,-0.18802 1.957527,-0.25771 5.678341,-0.72836 8.262151,-0.98486 7.36289,-0.67959 13.1987,-1.93135 15.85242,-3.42135 1.92736,-1.0786 2.7479,-1.12221 4.23229,-0.24812 4.0785,2.46568 11.02637,3.24547 19.25242,2.22022 4.44055,-0.53965 9.5861,-1.33966 11.36332,-1.79923 1.84202,-0.47458 5.13822,-0.89569 7.31211,-0.91133 2.2387,-0.0305 5.08889,-0.25134 6.36278,-0.39972 l 2.31003,-0.38796 2.55431,-4.92432 c 1.4063,-2.71111 2.84791,-5.81992 3.2276,-6.88163 l 0.67336,-1.9573 -10.60188,-11.86505 -10.60189,-11.86502 z m 7.27635,16.1885 c -0.5225,1.77635 -0.92791,4.64566 -0.9176,6.49364 -0.0162,3.21754 -0.0375,3.36854 -1.2966,3.70833 -0.67633,0.20507 -3.90774,0.61126 -7.15389,0.82605 -3.27485,0.27002 -8.36298,0.95953 -11.34935,1.55254 -5.58415,1.09618 -10.14833,0.88533 -10.75551,-0.58122 -0.20238,-0.48885 -0.0756,-2.70919 0.25087,-4.87869 0.32745,-2.16955 0.63945,-4.96853 0.74541,-6.16168 0.13315,-2.12464 0.19056,-2.23526 1.68665,-2.92203 0.82718,-0.38599 3.84959,-0.93866 6.63506,-1.14435 2.81415,-0.26092 6.74396,-0.58523 8.70888,-0.74731 7.9244,-0.66331 13.17223,-0.56191 13.96556,0.32606 0.25243,0.28247 0.0104,1.84794 -0.51948,3.52866 z m -34.32762,9.59155 c -0.31421,1.48478 -2.5212,3.21238 -3.20636,2.4456 -0.61304,-0.68608 -0.0906,-2.46246 1.17372,-4.02081 1.05605,-1.2667 2.38955,-0.21149 2.03264,1.57521 z m -11.32433,-0.69316 c 0.067,1.29927 -0.0677,2.54774 -0.31201,2.799 -0.67556,0.64312 -19.198618,4.04888 -22.912816,4.17712 -3.613357,0.15379 -5.796858,-1.24062 -6.442317,-4.06176 -0.688875,-2.95715 0.539353,-4.55581 4.216005,-5.60058 3.834859,-1.13001 8.477798,-1.18083 10.034278,-0.22579 0.65571,0.38404 4.16089,0.10936 7.83094,-0.59303 7.27527,-1.38977 7.27527,-1.38977 7.58592,3.50518 z m -33.529366,-3.59421 c -0.429762,1.268 -2.115764,0.34304 -3.436786,-1.83496 -1.104655,-1.93584 -0.839739,-2.77616 0.687311,-2.20401 1.627867,0.59752 3.150532,2.82628 2.749475,4.03897 z"
       id="path4" />
    <path
       style="stroke-width:0.05478232"
       inkscape:connector-curvature="0"
       d="m 87.870516,82.75639 c 0.34784,0.662567 0.852226,3.987272 1.096649,7.421467 0.68769,10.507063 3.064587,21.712363 5.489489,25.106093 1.098428,1.61773 2.248479,3.65302 2.496473,4.4964 0.534239,1.64749 1.950878,12.8183 2.608516,19.59263 0.181378,2.16612 1.053767,6.83855 1.930857,10.32983 1.00367,4.22398 1.31331,6.72911 0.77745,7.27869 -1.60758,1.64864 -2.39947,8.73343 -1.65371,14.47644 0.19145,1.60703 0.42453,4.19068 0.54773,5.71089 0.32313,6.56855 0.55276,8.13635 1.37831,9.40674 0.4693,0.7732 0.78891,2.71927 0.65231,4.34895 -0.24789,2.76325 1.0787,8.14582 2.0373,8.57407 0.26626,0.11895 2.43135,-1.78784 4.8427,-4.26081 4.09546,-4.2002 4.38666,-4.57728 3.80417,-5.62644 -2.28345,-4.40123 -4.35783,-25.95299 -2.71195,-27.64095 0.68895,-0.70654 2.53456,-0.95277 3.5464,-0.50075 0.47931,0.21414 2.55956,0.35453 4.64816,0.32955 l 3.79609,-0.051 -0.0284,1.28349 c -0.0716,0.70062 0.0133,2.2601 0.13822,3.38655 0.17715,1.15041 0.31467,3.12725 0.3247,4.37148 0.0483,3.00832 1.01045,8.05904 1.54301,8.29694 0.26625,0.11895 2.6993,-2.06261 5.41684,-4.84962 l 4.97581,-5.10304 -3.18243,-13.59384 c -1.7294,-7.47857 -2.99111,-13.79015 -2.79973,-13.98643 0.19138,-0.19628 0.0614,-1.94487 -0.21979,-3.93019 -0.26627,-1.92229 -0.75411,-5.57764 -1.02544,-8.12206 -0.72418,-7.25489 -1.98082,-12.94438 -3.43379,-15.45311 -1.05187,-1.82234 -1.10181,-2.63359 -0.27971,-4.18235 2.31976,-4.26085 2.99684,-11.227862 1.93313,-19.310671 -0.56111,-4.364342 -1.37839,-9.40674 -1.8361,-11.132737 -0.47269,-1.789045 -0.90885,-5.026927 -0.94546,-7.184725 -0.0517,-2.220837 -0.29136,-5.032862 -0.44619,-6.285437 l -0.39459,-2.261279 -4.73977,-2.117377 c -2.60953,-1.165746 -5.60018,-2.332677 -6.62035,-2.619361 l -1.88056,-0.501988 -11.252988,11.540657 -11.253051,11.54067 z m 15.425344,-8.606088 c 1.70582,0.367567 4.45677,0.525786 6.22584,0.358078 3.08042,-0.258105 3.22522,-0.249776 3.5631,0.97186 0.20313,0.654225 0.62418,3.829082 0.86238,7.03482 0.29135,3.229557 1.00213,8.224369 1.59983,11.139878 1.1052,5.452781 0.94894,10.003892 -0.44898,10.731852 -0.46597,0.24267 -2.59282,0.30694 -4.67311,0.16649 -2.08026,-0.14034 -4.763,-0.21179 -5.90633,-0.21538 -2.03532,0.0488 -2.14181,10e-4 -2.8142,-1.42625 -0.37782,-0.78866 -0.9371,-3.743425 -1.16186,-6.492431 -0.27795,-2.772784 -0.627627,-6.648232 -0.802457,-8.585962 -0.714227,-7.813977 -0.669405,-13.034782 0.172607,-13.898366 0.26792,-0.274783 1.76903,-0.167715 3.38336,0.215321 z m 9.52548,33.276918 c 1.42456,0.18559 3.10047,2.23038 2.37325,2.9762 -0.65067,0.66731 -2.35651,0.29974 -3.86099,-0.82318 -1.22326,-0.94091 -0.22637,-2.35524 1.48774,-2.15302 z m -0.55049,11.30641 c 1.24316,-0.17727 2.43973,-0.14991 2.68272,0.0713 0.62246,0.6162 4.06803,18.7231 4.22791,22.4011 0.1832,3.57568 -1.12978,5.86314 -3.82414,6.74457 -2.82413,0.93614 -4.3669,-0.14753 -5.40383,-3.71015 -1.12016,-3.7125 -1.21507,-8.31952 -0.31653,-9.94679 0.3611,-0.68398 0.0631,-4.14192 -0.64601,-7.72714 -1.40319,-7.10737 -1.40319,-7.10737 3.27989,-7.83297 z m -3.10588,33.60753 c 1.2182,0.3188 0.34955,2.07214 -1.72235,3.56973 -1.8422,1.26206 -2.6494,1.07057 -2.1169,-0.49485 0.55579,-1.6677 2.67429,-3.36989 3.83925,-3.07488 z"
       id="path4-3" />
  </g>
</svg>
